# xmcd
#
# Track frame offsets: 
#        150
#        11920
#        22897
#        38967
#        57112
#        71705
#        84717
#        101137
#        116557
#        133990
#
# Disc length: 1974 seconds
#
# Revision: 2
# Processed by: cddbd v1.5.2PL0 Copyright (c) Steve Scherf et al.
# Submitted via: ExactAudioCopy v0.95b4
#
DISCID=8b07b40a
DTITLE=Skip Ewing - Homegrown Love
DYEAR=1993
DGENRE=Country
TTITLE0=Homegrown Love
TTITLE1=You Only Come up When I'm Down
TTITLE2=Rodeo Romeo
TTITLE3=Sorry Seems to Be the Hardest Word
TTITLE4=Losing You Is New to Me
TTITLE5=Don't You Want My Love
TTITLE6=Grandma's Garden
TTITLE7=A Man Who Wants to Work
TTITLE8=Big Decision
TTITLE9=The Way Love Ought to Be
EXTD=
EXTT0=
EXTT1=
EXTT2=
EXTT3=
EXTT4=
EXTT5=
EXTT6=
EXTT7=
EXTT8=
EXTT9=
PLAYORDER=
